# xmcd
#
# Track frame offsets:
#	150
#	19206
#	39296
#	63092
#	80217
#	97356
#	115821
#	133382
#
# Disc length: 2104 seconds
#
# Revision: 0
# Processed by: cddbd v1.5.2PL0 Copyright (c) Steve Scherf et al.
# Submitted via: dBpowerAMP V4.0
#
DISCID=6f083608
DTITLE=Charlie Tipton - American Music
DYEAR=2011
DGENRE=Alternative Country
TTITLE0=Thinkin' About Goin' Home
TTITLE1=You're Gone
TTITLE2=Looking For Something
TTITLE3=I Hope You're Fine
TTITLE4=I Can Tell You Anything
TTITLE5=Out Of This City
TTITLE6=I Am Like You
TTITLE7=We Belong To Heaven Now
EXTD=
EXTT0=
EXTT1=
EXTT2=
EXTT3=
EXTT4=
EXTT5=
EXTT6=
EXTT7=
PLAYORDER=
